<?xml version="1.0" encoding="UTF-8"?>
<svg id="Capa_2" data-name="Capa 2" xmlns="http://www.w3.org/2000/svg" viewBox="0 0 57.4 17.7">
  <defs>
    <style>
      .cls-1 {
        fill: none;
      }

      .cls-1, .cls-2 {
        stroke-width: 0px;
      }

      .cls-2 {
        fill: #9e9ba3;
      }
    </style>
  </defs>
  <g id="Capa_1-2" data-name="Capa 1">
    <g>
      <path class="cls-2" d="M54.65,10.94c0-.13.05-.25.14-.35.1-.1.21-.14.35-.14s.25.05.35.14c.1.09.15.21.15.35s-.05.25-.14.34c-.1.09-.21.14-.35.14s-.25-.05-.35-.14c-.09-.09-.14-.21-.14-.34M50.62,5.08l2.74,6.27h-.78l-.78-1.85h-2.36l-.78,1.85h-.78l2.73-6.27ZM50.62,6.66l-.96,2.22h1.92l-.96-2.22ZM45.87,10.94c0-.13.05-.25.14-.35.1-.1.21-.14.35-.14s.25.05.35.14c.1.09.15.21.15.35s-.05.25-.14.34c-.1.09-.21.14-.35.14s-.25-.05-.35-.14c-.09-.09-.14-.21-.14-.34ZM43.48,8c.39.17.69.39.89.67.2.28.3.61.3.98,0,.56-.18,1-.53,1.34-.35.34-.82.51-1.4.51-.48,0-.87-.12-1.2-.36-.32-.24-.54-.59-.65-1.04l.65-.32c.09.37.23.64.43.83.2.19.46.28.76.28.36,0,.65-.1.87-.31.22-.21.33-.48.33-.81,0-.27-.08-.5-.23-.7-.16-.2-.39-.37-.7-.5l-.73-.31c-.4-.17-.7-.38-.9-.65-.2-.26-.3-.58-.3-.95,0-.43.16-.78.48-1.06.32-.28.72-.42,1.22-.42.36,0,.68.08.94.23.27.15.47.38.62.68l-.59.38c-.13-.23-.29-.41-.45-.52-.17-.11-.36-.17-.57-.17-.27,0-.49.08-.66.25-.17.16-.26.37-.26.63,0,.21.07.4.2.56.13.16.34.3.61.42l.86.38ZM33.52,10.11c.46,0,.83-.17,1.13-.5.3-.34.45-.76.45-1.27s-.15-.93-.45-1.27c-.3-.34-.68-.51-1.12-.51s-.83.17-1.13.5c-.3.34-.45.76-.45,1.27s.15.94.44,1.27c.29.33.67.5,1.14.5ZM36.74,8.34c0,.43-.08.84-.24,1.22-.16.38-.39.72-.7,1.02-.31.3-.66.52-1.05.69-.39.16-.81.24-1.23.24s-.84-.08-1.24-.24c-.39-.16-.74-.39-1.04-.69-.31-.3-.55-.64-.71-1.02-.16-.38-.24-.79-.24-1.21s.08-.84.24-1.22c.16-.38.4-.72.71-1.02.3-.3.65-.52,1.04-.69.39-.16.81-.24,1.24-.24s.84.08,1.24.24c.4.16.75.39,1.05.69.3.3.53.64.69,1.02.16.38.24.79.24,1.22ZM26.29,8.16h.3c.35,0,.61-.06.78-.18.16-.12.24-.31.24-.57,0-.3-.08-.52-.23-.65-.15-.13-.41-.19-.77-.19h-.33v1.59ZM24.75,11.34v-6.03h1.72c.67,0,1.14.03,1.41.09.26.06.49.17.69.31.22.16.38.38.5.63.12.26.17.54.17.84,0,.47-.11.85-.34,1.14-.23.29-.56.49-1,.58l1.64,2.43h-1.86l-1.38-2.36v2.36h-1.54ZM16.19,11.34v-6.03h1.66v6.03h-1.66ZM11.5,10.11c.46,0,.83-.17,1.13-.5.3-.34.45-.76.45-1.27s-.15-.93-.45-1.27c-.3-.34-.68-.51-1.12-.51s-.83.17-1.13.5c-.3.34-.45.76-.45,1.27s.15.94.44,1.27c.29.33.67.5,1.14.5ZM14.72,8.34c0,.43-.08.84-.24,1.22-.16.38-.39.72-.7,1.02-.31.3-.66.52-1.05.69-.4.16-.81.24-1.23.24s-.84-.08-1.24-.24c-.4-.16-.74-.39-1.04-.69-.31-.3-.55-.64-.71-1.02-.16-.38-.24-.79-.24-1.21s.08-.84.24-1.22c.16-.38.4-.72.71-1.02.3-.3.65-.52,1.04-.69.39-.16.81-.24,1.24-.24s.84.08,1.24.24c.4.16.75.39,1.05.69.3.3.53.64.69,1.02.16.38.24.79.24,1.22ZM3.94,10.11h.58c.39,0,.67-.05.83-.15.16-.1.24-.26.24-.49,0-.25-.07-.43-.22-.53-.15-.1-.42-.15-.82-.15h-.6v1.31ZM2.41,11.34v-6.03h1.65c.68,0,1.16.02,1.43.07.27.04.5.12.7.23.22.12.39.29.51.5.12.21.18.45.18.72,0,.34-.09.62-.26.82-.17.2-.45.35-.83.46.43.03.76.18,1,.45.24.27.36.63.36,1.07,0,.32-.07.6-.2.85-.14.24-.33.43-.58.57-.21.11-.46.19-.76.23-.3.05-.8.07-1.48.07h-1.7ZM3.94,7.73h.33c.41,0,.69-.05.84-.13.15-.09.23-.24.23-.46s-.07-.39-.21-.48c-.14-.09-.42-.14-.83-.14h-.35v1.21Z"/>
      <rect class="cls-2" x="19.32" y="9.97" width="3.95" height="1.38"/>
      <rect class="cls-2" x="19.32" y="5.31" width="3.95" height="1.38"/>
      <rect class="cls-2" x="19.32" y="7.64" width="3.95" height="1.38"/>
      <rect class="cls-1" width="57.4" height="17.7"/>
    </g>
  </g>
</svg>