<?xml version="1.0" encoding="UTF-8"?>
<svg id="Capa_2" data-name="Capa 2" xmlns="http://www.w3.org/2000/svg" viewBox="0 0 45.54 17.7">
  <defs>
    <style>
      .cls-1 {
        opacity: .33;
      }

      .cls-1, .cls-2, .cls-3, .cls-4, .cls-5, .cls-6 {
        stroke-width: 0px;
      }

      .cls-1, .cls-3, .cls-4, .cls-5, .cls-6 {
        fill: #9e9ba3;
      }

      .cls-2 {
        fill: none;
      }

      .cls-3 {
        opacity: .62;
      }

      .cls-4 {
        fill-rule: evenodd;
      }

      .cls-5 {
        opacity: .82;
      }
    </style>
  </defs>
  <g id="Capa_1-2" data-name="Capa 1">
    <g>
      <path class="cls-6" d="M38.74,3.06h1.95l-.02-.05c-.22-.49-.54-.74-.97-.74s-.75.26-.96.78M32.89,3.06h3.5s-.03-.04-.04-.06c-.14-.19-.32-.33-.55-.44-.23-.1-.49-.16-.77-.16h-1.52c-.2,0-.35.05-.46.14-.11.1-.16.22-.16.39v.12ZM27.57,3.06h4.14s-.06-.06-.09-.09c-.24-.22-.53-.38-.86-.5-.33-.12-.71-.17-1.11-.17s-.78.06-1.12.17c-.33.12-.62.28-.86.5-.03.03-.06.06-.09.09ZM21.65,3.06h3.99c-.15-.13-.32-.25-.52-.36-.35-.2-.81-.29-1.37-.29h-1.48c-.2,0-.35.05-.46.16-.11.11-.16.24-.16.4v.1ZM17.11,3.06h3.73c-.14-.2-.34-.35-.58-.46-.28-.13-.62-.19-1.01-.19h-1.48c-.21,0-.38.06-.49.17-.11.11-.17.23-.17.37v.12ZM11.79,3.06h4.14s-.06-.06-.09-.09c-.24-.22-.53-.38-.86-.5-.33-.12-.71-.17-1.11-.17s-.78.06-1.12.17c-.33.12-.62.28-.86.5-.03.03-.06.06-.09.09ZM6.86,3.06s.06-.06.09-.08c.25-.22.54-.39.88-.5.34-.12.71-.17,1.11-.17.24,0,.49.02.74.06.25.04.46.12.65.24.18.11.27.27.27.46h-3.73Z"/>
      <path class="cls-5" d="M38.74,3.06h1.95l.31.7h-1.15l-.11-.29h-.02l-.11.29h-1.17l.29-.68v-.02ZM32.89,3.06h3.5c.11.17.16.36.16.57,0,.05,0,.09,0,.13h-1.24c-.03-.26-.22-.39-.58-.39h-.57v.39h-1.26v-.7ZM27.57,3.06h4.14c.2.2.35.43.46.7h-1.48c-.08-.1-.17-.18-.28-.25-.2-.14-.46-.21-.77-.21s-.57.07-.77.21c-.11.07-.2.16-.28.25h-1.48c.11-.27.27-.5.46-.7ZM21.65,3.06h3.99c.12.11.22.22.31.34.08.11.15.23.21.36h-1.5c-.26-.24-.59-.36-1-.36h-.75v.36h-1.26v-.7ZM17.11,3.06h3.73s.04.05.05.08c.11.18.18.39.21.62h-1.29c-.03-.07-.08-.14-.15-.2-.12-.1-.27-.16-.45-.16h-.84v.36h-1.26v-.7ZM11.79,3.06h4.14c.2.2.35.43.46.7h-1.48c-.08-.1-.17-.18-.28-.25-.2-.14-.46-.21-.77-.21s-.57.07-.77.21c-.11.07-.2.16-.28.25h-1.48c.11-.27.27-.5.46-.7ZM6.38,3.76h0c.12-.26.28-.5.48-.7h3.73s0,.09-.02.13c-.01.04-.02.07-.02.07-.1.19-.27.3-.5.31-.08,0-.17-.02-.28-.05-.11-.03-.21-.06-.29-.09-.09-.03-.17-.05-.25-.07-.08-.02-.17-.03-.25-.03-.33,0-.62.08-.86.23-.09.05-.16.12-.23.19h-1.51Z"/>
      <path class="cls-3" d="M40.06,4.37h1.19l-.27-.61h-1.15l.23.61ZM38.17,4.37h1.2l.24-.61h-1.17l-.27.61ZM32.89,4.37h3.3c.21-.16.33-.37.36-.61h-1.24s0,.02,0,.04c0,.31-.2.46-.6.46h-.56v-.5h-1.26v.61ZM30.97,4.37h1.37c-.03-.22-.09-.42-.17-.61h0s-1.48,0-1.48,0c.07.09.13.18.17.29.05.1.08.21.1.33ZM26.94,4.37h1.37c.02-.11.06-.22.1-.33.05-.11.1-.2.17-.29h-1.48c-.08.2-.13.4-.16.61ZM24.98,4.37h1.36c-.03-.22-.09-.42-.18-.61h-1.5s.03.03.05.05c.14.14.23.33.27.57ZM21.65,4.37h1.26v-.61h-1.26v.61ZM19.54,4.37h1.48c.05-.12.08-.26.09-.42,0-.07,0-.13-.01-.19h-1.29c.02.06.03.12.03.18,0,.15-.07.28-.2.37-.03.02-.06.04-.1.06ZM17.11,4.37h1.26v-.61h-1.26v.61ZM15.19,4.37h1.37c-.03-.22-.09-.42-.17-.61h0s-1.48,0-1.48,0c.07.09.13.18.17.29.04.1.08.21.1.33ZM11.17,4.37h1.37c.02-.11.06-.22.1-.33.05-.11.1-.2.17-.29h-1.48c-.08.2-.13.4-.16.61ZM6.2,4.37c.03-.22.09-.42.17-.61h1.51c-.12.13-.21.28-.27.45-.02.05-.03.1-.05.16h-1.37Z"/>
      <path class="cls-1" d="M40.06,4.37h1.19l.33.75h-1.25l-.28-.75ZM38.17,4.37h1.2l-.29.75h-1.23l.33-.75ZM32.89,4.37h3.3c-.08.06-.18.12-.28.17.23.03.43.11.6.22.15.1.26.22.34.36h-3.95v-.75ZM30.97,4.37h1.37c.02.13.03.27.03.41,0,.12,0,.23-.02.34h-1.36c.02-.11.03-.22.03-.34,0-.14-.01-.28-.04-.41ZM26.94,4.37h1.37c-.03.13-.04.27-.04.41,0,.12,0,.23.03.34h-1.36c-.01-.11-.02-.22-.02-.34,0-.14,0-.28.03-.41ZM24.98,4.37h1.36c.02.13.03.27.03.41,0,.11,0,.23-.03.34h-1.37c.02-.12.04-.25.04-.38s-.01-.26-.03-.37ZM21.65,4.37h1.26v.75h-1.26v-.75ZM17.11,4.37h1.26v.09h.79c.14,0,.27-.03.38-.09h1.48c-.04.1-.09.18-.15.26-.15.18-.32.32-.51.41-.07.03-.13.06-.19.08h-3.05v-.75ZM15.19,4.37h1.37c.02.13.03.27.03.41,0,.12,0,.23-.02.34h-1.36c.02-.11.03-.22.03-.34,0-.14-.01-.28-.04-.41ZM11.17,4.37h1.37c-.03.13-.04.27-.04.41,0,.12,0,.23.03.34h-1.36c-.01-.11-.02-.22-.02-.34,0-.14,0-.28.03-.41ZM6.18,4.76c0-.13,0-.26.03-.39h1.37c-.03.11-.05.25-.06.4,0,.12.02.24.05.35h-1.36c-.01-.12-.02-.24-.02-.36Z"/>
      <path class="cls-3" d="M37.56,5.77h4.31l-.28-.65h-1.25l.03.07h-1.32l.03-.07h-1.23l-.28.65ZM32.89,5.77h1.26v-.56h.76c.24,0,.44.04.58.12.14.08.21.2.21.35,0,.03,0,.05,0,.08h1.31s0-.03,0-.04c0-.2-.04-.38-.13-.54-.01-.02-.02-.04-.03-.06h-3.95v.65ZM30.71,5.77h1.47c.08-.2.14-.42.16-.65h-1.36c-.02.13-.06.26-.12.39-.04.09-.09.18-.15.26ZM27.1,5.77h1.47c-.14-.19-.23-.4-.27-.65h-1.36c.03.23.08.44.16.65ZM24.66,5.77h1.48s.03-.07.05-.1c.08-.18.13-.36.16-.55h-1.37c-.01.07-.03.14-.06.21-.06.19-.15.33-.26.43h0ZM21.65,5.77h1.26v-.65h-1.26v.65ZM17.11,5.77h1.26v-.52h.02l.48.52h1.56l-.61-.56c.11-.01.23-.04.35-.09h-3.05v.65ZM14.93,5.77h1.47c.08-.2.14-.42.16-.65h-1.36c-.02.13-.06.26-.12.39-.04.09-.09.18-.15.26ZM11.32,5.77h1.47c-.14-.19-.23-.4-.27-.65h-1.36c.03.23.08.44.16.65ZM7.56,5.12c.05.23.15.43.29.62,0,0,.02.02.02.03h-1.51c-.08-.2-.14-.41-.17-.65h1.36Z"/>
      <path class="cls-5" d="M37.56,5.77h4.31l.19.42c.04.1.06.19.08.27h-1.3l-.09-.27h-2.06l-.1.27h-1.3c.02-.1.06-.2.11-.32l.16-.38ZM32.89,5.77h1.26v.41h.81c.45,0,.7-.14.73-.41h1.31c0,.12-.03.26-.07.41-.04.1-.09.2-.15.29h-3.9v-.7ZM27.1,5.77h1.47s.03.04.04.05c.23.28.57.43,1.03.43.31,0,.57-.07.77-.2.12-.08.22-.17.3-.28h1.47s0,.02-.01.03c-.11.25-.25.48-.44.67h-4.18c-.19-.2-.33-.42-.44-.68v-.02ZM21.65,5.77h1.26v.38h.72c.42,0,.76-.13,1.03-.38h1.48c-.12.24-.28.46-.47.66-.01.01-.03.03-.04.04h-3.98v-.7ZM18.87,5.77h1.56l.52.48c.08.07.14.14.17.22h-1.61l-.65-.7ZM17.11,5.77h1.26v.7h-1.26v-.7ZM11.32,5.77h1.47s.03.04.04.05c.23.28.57.43,1.03.43.31,0,.57-.07.77-.2.12-.08.22-.17.3-.28h1.47s0,.02-.01.03c-.11.25-.25.48-.44.67h-4.18c-.19-.2-.33-.42-.44-.68v-.02ZM7.87,5.77c.24.27.59.4,1.06.4.29,0,.54-.04.76-.13.15-.05.27-.08.37-.08.17,0,.3.05.42.14.11.09.17.21.17.35,0,0,0,.01,0,.02h-3.82c-.08-.08-.16-.18-.23-.28-.09-.13-.17-.27-.24-.42h1.51Z"/>
      <path class="cls-6" d="M15.95,6.47h-4.18s.07.07.11.11c.24.22.53.39.87.5.34.12.71.17,1.11.17s.78-.06,1.11-.17c.34-.12.62-.28.86-.5.04-.04.08-.07.11-.11M18.37,6.47h-1.26v.13c0,.37.2.57.61.59.19,0,.35-.05.47-.15.12-.1.18-.24.18-.43v-.15ZM21.13,6.47h-1.61l.44.47c.14.14.3.23.49.25.21,0,.38-.05.52-.14.14-.09.21-.21.21-.37,0-.07-.02-.15-.05-.21ZM25.63,6.47h-3.98v.13c0,.17.06.3.18.4.12.1.28.15.47.15h1.53c.37,0,.72-.06,1.03-.19.29-.12.55-.28.77-.48ZM31.73,6.47h-4.18s.07.07.11.11c.24.22.53.39.87.5.34.12.71.17,1.11.17s.78-.06,1.11-.17c.34-.12.62-.28.86-.5.04-.04.08-.07.11-.11ZM36.79,6.47h-3.9v.13c0,.18.06.31.19.41.13.09.27.14.43.14h1.6c.34,0,.64-.04.89-.12.25-.08.46-.2.61-.34.07-.07.13-.14.18-.21ZM38.59,6.47h-1.3c-.02.08-.03.16-.03.22,0,.3.2.45.59.45.18,0,.32-.04.43-.12.1-.08.19-.21.24-.37l.07-.19ZM42.14,6.47h-1.3l.06.19c.12.34.34.5.65.5.18,0,.32-.04.44-.13.11-.09.17-.2.17-.35,0-.06,0-.13-.03-.21ZM10.65,6.47c0,.24-.16.43-.46.54-.42.16-.85.24-1.29.24s-.85-.07-1.2-.21c-.33-.13-.62-.32-.87-.57h3.82Z"/>
      <path class="cls-4" d="M12.72,12.63c-.17.19-.38.37-.6.54h-7.83c-.23-.17-.43-.35-.6-.54h9.04Z"/>
      <path class="cls-4" d="M13.33,11.57c-.06.22-.15.42-.28.62H3.35c-.12-.2-.22-.41-.28-.62h10.25Z"/>
      <path class="cls-4" d="M13.37,10.57c.03.14.04.27.04.41,0,.05,0,.09,0,.14H3s0-.09,0-.14c0-.14.01-.28.04-.41h10.33Z"/>
      <path class="cls-4" d="M12.51,9.12c.29.27.52.57.67.89H3.22c.15-.32.38-.62.67-.89h8.62Z"/>
      <path class="cls-4" d="M8.2,7.66c1.44,0,2.74.37,3.69.98h-7.37c.94-.6,2.25-.98,3.69-.98"/>
      <path class="cls-6" d="M37.85,11.25c-.03.39-.12.75-.27,1.08-.03.06-.06.12-.09.18.07.01.15.03.23.05.21.06.43.12.64.18.22.06.41.09.59.1.08,0,.14,0,.18,0,.26,0,.49-.06.69-.15.2-.1.3-.24.3-.42s-.09-.33-.28-.44c-.19-.1-.43-.19-.73-.27-.05-.01-.23-.06-.54-.13-.26-.06-.5-.12-.71-.19M33.83,8.96c-.46,0-.84.09-1.14.28-.31.18-.53.43-.67.73-.14.3-.21.64-.21,1,0,.55.17,1.02.51,1.41.34.38.85.58,1.52.58.46,0,.84-.09,1.14-.28.31-.18.53-.43.67-.73.14-.3.21-.63.21-.98s-.07-.69-.21-1c-.14-.3-.37-.55-.67-.73-.3-.18-.68-.28-1.14-.28ZM23.38,8.96c-.46,0-.84.09-1.14.28-.31.18-.53.43-.67.73-.14.3-.21.64-.21,1,0,.55.17,1.02.51,1.41.34.38.85.58,1.52.58.46,0,.84-.09,1.14-.28.31-.18.53-.43.67-.73.14-.3.21-.63.21-.98s-.07-.69-.21-1c-.14-.3-.37-.55-.67-.73-.3-.18-.68-.28-1.14-.28ZM27.45,13.44v-4.34h-.61c.11.15.2.31.28.49.19.42.29.88.29,1.39s-.1.95-.29,1.37c-.19.41-.46.76-.82,1.06-.36.29-.78.52-1.28.68-.49.16-1.04.24-1.65.24s-1.15-.08-1.65-.24c-.5-.16-.93-.39-1.28-.68-.36-.3-.63-.65-.82-1.06-.19-.41-.28-.87-.28-1.36s.09-.96.28-1.38c.19-.42.46-.77.82-1.07.36-.3.78-.52,1.28-.68.5-.16,1.05-.24,1.65-.24s1.16.08,1.65.24c.19.06.37.13.54.21.14-.2.43-.3.86-.3h3.95c.54,0,.85.16.94.47.26-.16.55-.28.86-.38.5-.16,1.05-.24,1.65-.24s1.16.08,1.65.24c.5.16.92.38,1.28.68h0c.28-.33.7-.58,1.28-.75.43-.11.88-.16,1.35-.16.3,0,.63.03.98.09.35.06.65.16.9.31.25.15.38.34.38.59,0,.2-.08.35-.24.47-.16.12-.37.18-.63.2-.15-.02-.39-.06-.72-.14-.33-.07-.6-.11-.8-.11-.22,0-.42.04-.59.12-.17.08-.27.2-.29.35,0,.16.06.27.17.33.12.06.35.14.69.24.33.09.66.17.98.26.32.09.63.2.91.33.29.13.52.33.71.57.19.25.29.56.29.94,0,.56-.2,1.01-.59,1.37-.6.52-1.44.78-2.5.78-.88,0-1.62-.13-2.25-.41-.17-.07-.3-.16-.4-.26-.28.18-.59.32-.94.43-.5.16-1.04.24-1.65.24s-1.15-.08-1.65-.24c-.5-.16-.92-.39-1.28-.68-.36-.3-.63-.65-.82-1.06-.19-.41-.28-.87-.28-1.36s.09-.96.28-1.38c.08-.17.17-.34.28-.49h-1.03v4.34c0,.25-.08.44-.26.57-.17.13-.4.2-.68.2s-.5-.07-.68-.2c-.18-.14-.27-.33-.27-.57Z"/>
      <path class="cls-6" d="M13.58,8.78c.05-.22.1-.39.15-.51.05-.11.12-.22.22-.31.17-.19.47-.28.87-.28.38,0,.66.11.84.32.17.21.35.53.53.95l.98,2.51h.02l1.06-2.74c.15-.33.32-.58.51-.76.18-.18.45-.27.79-.27.31,0,.58.08.79.24.22.16.35.38.4.64l.94,4.41s.02.12.04.25c.02.13.03.22.03.28,0,.2-.09.37-.26.5-.17.13-.39.2-.65.2s-.47-.07-.62-.21c-.16-.14-.25-.32-.28-.55l-.58-3.06h-.02l-1.2,3.19c-.07.19-.17.34-.31.45-.13.11-.34.17-.61.18-.29,0-.51-.05-.66-.15-.15-.1-.26-.26-.33-.48l-1.22-3.19h-.02l-.5,2.84c-.11.65-.45.97-1,.97-.24,0-.44-.06-.6-.19-.16-.13-.25-.28-.27-.48,0,0,0-.05.02-.13.01-.08.02-.16.04-.25.01-.09.03-.17.04-.24l.87-4.15Z"/>
      <path class="cls-6" d="M21.52,13.99c-.41-.15-.76-.35-1.07-.61-.27-.22-.49-.48-.67-.77l-.41-2.14c.04-.31.13-.61.25-.89.19-.42.46-.77.82-1.07.07-.06.15-.12.23-.17.03.07.06.15.07.23l.94,4.41s.02.12.04.25c.02.13.03.22.03.28,0,.19-.08.35-.24.48"/>
      <rect class="cls-2" width="45.54" height="17.7"/>
    </g>
  </g>
</svg>