<?xml version="1.0" encoding="UTF-8"?>
<svg id="Capa_2" data-name="Capa 2" xmlns="http://www.w3.org/2000/svg" viewBox="0 0 59.53 17.7">
  <defs>
    <style>
      .cls-1 {
        fill: none;
      }

      .cls-1, .cls-2 {
        stroke-width: 0px;
      }

      .cls-2 {
        fill: #9e9ba3;
      }
    </style>
  </defs>
  <g id="Capa_1-2" data-name="Capa 1">
    <g>
      <path class="cls-2" d="M57.01,9.43v1.3h-1.36v-1.3h1.36ZM52.25,8.7h.79l-.4-1.41-.4,1.41ZM53.58,10.73l-.28-.96h-1.31l-.29.96h-1.21l1.51-4.88h1.58l1.53,4.88h-1.53ZM50.14,9.43v1.3h-1.36v-1.3h1.36ZM43.93,9.32l1.39-.25c.12.39.42.59.9.59.38,0,.56-.1.56-.3,0-.1-.04-.19-.13-.25-.09-.06-.24-.11-.47-.15-.85-.16-1.4-.38-1.65-.64-.24-.26-.36-.58-.36-.93,0-.46.17-.84.52-1.15.35-.3.85-.46,1.51-.46.99,0,1.65.4,1.97,1.2l-1.24.38c-.13-.33-.39-.49-.78-.49-.33,0-.49.1-.49.3,0,.09.04.16.11.21.07.05.22.1.43.14.58.12,1,.23,1.24.33.25.1.45.26.61.49.17.23.25.5.25.81,0,.49-.2.89-.6,1.2-.4.31-.93.46-1.58.46-1.19,0-1.92-.5-2.2-1.49ZM39.05,7.82h.64c.19,0,.34-.04.45-.12.11-.08.17-.2.17-.35,0-.31-.19-.47-.57-.47h-.69v.93ZM41.89,10.73h-1.66l-.71-1.87h-.47v1.87h-1.5v-4.88h2.55c.56,0,1,.13,1.31.4.31.26.47.61.47,1.04,0,.28-.06.53-.17.75-.11.21-.35.41-.69.57l.88,2.13ZM34.24,8.7h.79l-.4-1.41-.4,1.41ZM35.57,10.73l-.28-.96h-1.31l-.29.96h-1.22l1.51-4.88h1.58l1.53,4.88h-1.53ZM32.29,9.57v1.16h-3.67v-4.88h3.67v1.13h-2.2v.71h1.78v1.08h-1.78v.8h2.2ZM28.14,5.85l-1.29,4.88h-1.26l-.68-2.69-.64,2.69h-1.31l-1.3-4.88h1.41l.68,2.81.67-2.81h1.18l.72,2.81.68-2.81h1.15ZM16.65,7.82h.64c.19,0,.34-.04.45-.12.11-.08.17-.2.17-.35,0-.31-.19-.47-.57-.47h-.69v.93ZM19.49,10.73h-1.66l-.71-1.87h-.47v1.87h-1.5v-4.88h2.55c.56,0,1,.13,1.31.4.31.26.47.61.47,1.04,0,.28-.06.53-.17.75-.11.21-.35.41-.69.57l.88,2.13ZM14.56,9.57v1.16h-3.67v-4.88h3.67v1.13h-2.2v.71h1.78v1.08h-1.78v.8h2.2ZM10.44,5.85l-1.52,4.88h-1.53l-1.58-4.88h1.58l.77,2.66c.05.16.1.31.14.46l.9-3.12h1.23ZM5.62,9.57v1.16H1.95v-4.88h3.67v1.13h-2.2v.71h1.78v1.08h-1.78v.8h2.2Z"/>
      <rect class="cls-1" width="59.53" height="17.7"/>
    </g>
  </g>
</svg>