<?xml version="1.0" encoding="UTF-8"?>
<svg id="Capa_2" data-name="Capa 2" xmlns="http://www.w3.org/2000/svg" viewBox="0 0 34.16 17.7">
  <defs>
    <style>
      .cls-1 {
        fill: none;
      }

      .cls-1, .cls-2 {
        stroke-width: 0px;
      }

      .cls-2 {
        fill: #9e9ba3;
        fill-rule: evenodd;
      }
    </style>
  </defs>
  <g id="Capa_1-2" data-name="Capa 1">
    <path class="cls-2" d="M25.91,8.15h0c-.4.06-.8.04-1.06.04-.18,0-.19-.06-.16-.2.11-.53.21-1.06.32-1.59.04-.12.05-.17.26-.17.07,0,.33-.01.65,0,.56.03,1.27.16,1.23.66-.1.85-.66,1.15-1.23,1.25M27.51,3.15h-8.9c1.74.38,3.1,1.08,3.8,1.99.38.64-.13.8-.63.95-1,.31-1.99.62-2.99.93-.42.13-.98.31-1.26-.17-.36-.45-3.37-1.12-4.55,1.97-.04.21-.07.4-.09.58v.59c.23,2.27,3.32,1.29,3.56,1.1.23-.18.31-.31.31-.4,0-.17-.23-.17-.61-.17-1.18,0-1.19,0-1.05-.88.05-.28.11-.56.16-.83.18-1.1.91-1.02,1.09-1.02h5.52c1.07,0,1,.38.87,1.05-.95,3.66-3.81,4.9-6.98,5.71h6.29c.87,0,1.17-.19,1.28-.68.17-.78.35-1.57.53-2.34.08-.33.1-.45.84-.46.43,0,.83,0,1.21-.01,3.4-.11,4.82-.83,5.75-3.46.11-.33.19-.64.22-.94v-.78c-.21-1.64-1.77-2.72-4.36-2.72ZM4.86,3.93c-.74,3.24-1.47,6.48-2.21,9.73-.16.7.11.89.61.89h3.22c.62,0,.95-.26,1.05-.68.21-.93.42-1.84.63-2.77.1-.43.27-.58.64-.58h2.16c.58,0,.9-.16,1-.6.11-.51.23-1.02.35-1.53.09-.41.18-.8-.7-.8h-2.22c-.43,0-.38-.21-.31-.51.04-.16.07-.27.09-.38.03-.19.18-.31.33-.31h2.73c.7,0,1.08-.14,1.23-.78l.36-1.57c.17-.75-.08-.91-.88-.91h-6.88c-.76,0-1.04.17-1.18.78Z"/>
    <rect class="cls-1" width="34.16" height="17.7"/>
  </g>
</svg>